<?xml version="1.0"?>
<svg xmlns="http://www.w3.org/2000/svg" xmlns:xlink="http://www.w3.org/1999/xlink" version="1.1" id="Capa_1" x="0px" y="0px" viewBox="0 0 512 512" style="enable-background:new 0 0 512 512;" xml:space="preserve" width="512px" height="512px" class=""><g><path style="fill:#E3E9ED" d="M483.31,512H28.69C12.844,512,0,499.156,0,483.31V105.931h512V483.31  C512,499.156,499.156,512,483.31,512z" data-original="#ECF0F1" class="active-path" data-old_color="#ECF0F1"/><g>
	<rect x="229.517" y="150.069" style="fill:#FFFFFF;" width="52.966" height="52.966" data-original="#FFFFFF" class=""/>
	<rect x="317.793" y="150.069" style="fill:#FFFFFF;" width="52.966" height="52.966" data-original="#FFFFFF" class=""/>
	<rect x="406.069" y="150.069" style="fill:#FFFFFF;" width="52.966" height="52.966" data-original="#FFFFFF" class=""/>
	<rect x="52.966" y="238.345" style="fill:#FFFFFF;" width="52.966" height="52.966" data-original="#FFFFFF" class=""/>
	<rect x="141.241" y="238.345" style="fill:#FFFFFF;" width="52.966" height="52.966" data-original="#FFFFFF" class=""/>
	<rect x="229.517" y="238.345" style="fill:#FFFFFF;" width="52.966" height="52.966" data-original="#FFFFFF" class=""/>
	<rect x="317.793" y="238.345" style="fill:#FFFFFF;" width="52.966" height="52.966" data-original="#FFFFFF" class=""/>
	<rect x="406.069" y="238.345" style="fill:#FFFFFF;" width="52.966" height="52.966" data-original="#FFFFFF" class=""/>
	<rect x="52.966" y="326.621" style="fill:#FFFFFF;" width="52.966" height="52.966" data-original="#FFFFFF" class=""/>
	<rect x="141.241" y="326.621" style="fill:#FFFFFF;" width="52.966" height="52.966" data-original="#FFFFFF" class=""/>
	<rect x="229.517" y="326.621" style="fill:#FFFFFF;" width="52.966" height="52.966" data-original="#FFFFFF" class=""/>
	<rect x="317.793" y="326.621" style="fill:#FFFFFF;" width="52.966" height="52.966" data-original="#FFFFFF" class=""/>
	<rect x="406.069" y="326.621" style="fill:#FFFFFF;" width="52.966" height="52.966" data-original="#FFFFFF" class=""/>
	<rect x="52.966" y="414.897" style="fill:#FFFFFF;" width="52.966" height="52.966" data-original="#FFFFFF" class=""/>
	<rect x="141.241" y="414.897" style="fill:#FFFFFF;" width="52.966" height="52.966" data-original="#FFFFFF" class=""/>
	<rect x="229.517" y="414.897" style="fill:#FFFFFF;" width="52.966" height="52.966" data-original="#FFFFFF" class=""/>
	<rect x="317.793" y="414.897" style="fill:#FFFFFF;" width="52.966" height="52.966" data-original="#FFFFFF" class=""/>
</g><g>
	<rect x="52.966" style="fill:#0076FF" width="44.138" height="70.621" data-original="#285680" class="" data-old_color="#285680"/>
	<rect x="414.897" style="fill:#0076FF" width="44.138" height="70.621" data-original="#285680" class="" data-old_color="#285680"/>
</g><path style="fill:#54A3FF" d="M483.31,35.31h-24.276v35.31h-44.138V35.31H97.103v35.31H52.966V35.31H28.69  C12.844,35.31,0,48.154,0,64v41.931h512V64C512,48.154,499.156,35.31,483.31,35.31z" data-original="#4482C3" class="" data-old_color="#4482C3"/></g> </svg>
