<?xml version="1.0"?>
<svg xmlns="http://www.w3.org/2000/svg" xmlns:xlink="http://www.w3.org/1999/xlink" version="1.1" id="Capa_1" x="0px" y="0px" viewBox="0 0 512 512" style="enable-background:new 0 0 512 512;" xml:space="preserve" width="512px" height="512px" class="hovered-paths"><g><path style="fill:#9FAAB7" d="M441.4,125.939c0.901-3.9,0.601-8.101-1.5-11.4c-19.501-33.9-61.199-46.5-96-30.901  c-3.6-3.3-7.5-6.299-11.4-9l13.5-51c2.1-7.8-2.401-16.199-10.499-18.3c-19.501-5.099-39.6-2.401-57.001,7.5  c-9,5.4-16.8,12.301-22.5,20.7c-4.501,5.4-7.8,11.4-10.201,17.701c-4.799,0.298-9.598,0.899-14.399,1.8L205,7.439  c-2.1-3.3-5.4-6-9-6.899c-3.9-0.901-8.101-0.601-11.4,1.5c-33.6,19.499-46.8,61.199-30.899,96c-3.301,3.6-6.301,7.5-9.001,11.4  l-50.999-13.5c-7.8-2.1-16.201,2.399-18.301,10.499c-5.099,19.501-2.399,39.6,7.5,57.001c8.701,15,22.2,26.4,38.401,32.699  c0.3,4.801,0.899,9.6,1.8,14.401L77.5,236.94c-3.3,2.098-6,5.4-6.899,9c-0.901,3.9-0.601,8.099,1.5,11.4  c19.501,33.9,61.199,46.5,96,30.899c3.6,3.3,7.5,6.301,11.4,9l-13.5,51c-2.1,7.8,2.401,16.201,10.499,18.3  c19.501,5.101,39.6,2.401,57.001-7.5c9-5.4,16.8-12.299,22.5-20.7c4.501-5.4,7.8-11.398,10.201-17.699  c4.799-0.3,9.598-0.901,14.399-1.8L307,364.44c4.2,6.899,13.2,9.598,20.4,5.4c33.6-19.501,46.8-61.201,30.899-96  c3.301-3.6,6.301-7.5,9.001-11.4l50.999,13.5c8.101,2.399,16.201-2.401,18.301-10.501c5.099-19.499,2.399-39.6-7.5-56.999  c-8.701-15-22.2-26.4-38.401-32.701c-0.3-4.799-0.899-9.6-1.8-14.399l45.601-26.4C437.8,132.839,440.501,129.539,441.4,125.939z" data-original="#68544F" class="" data-old_color="#68544F"/><path style="fill:#9FAAB7" d="M434.5,134.939l-45.601,26.4c0.901,4.799,1.5,9.6,1.8,14.399c16.201,6.301,29.7,17.701,38.401,32.701  c9.899,17.399,12.599,37.5,7.5,56.999c-2.1,8.101-10.201,12.9-18.301,10.501l-50.999-13.5c-2.701,3.9-5.7,7.8-9.001,11.4  c15.901,34.799,2.701,76.5-30.899,96c-7.2,4.199-16.199,1.5-20.4-5.4l-26.4-45.601c-4.801,0.899-9.6,1.5-14.399,1.8  c-2.401,6.301-5.7,12.299-10.201,17.699V33.539c5.7-8.399,13.5-15.3,22.5-20.7c17.401-9.901,37.5-12.599,57.001-7.5  c8.099,2.1,12.599,10.499,10.499,18.3l-13.5,51c3.9,2.701,7.8,5.7,11.4,9c34.801-15.599,76.5-2.999,96,30.901  c2.1,3.3,2.401,7.5,1.5,11.4C440.501,129.539,437.8,132.839,434.5,134.939z" data-original="#53433F" class="" data-old_color="#53433F"/><path style="fill:#FFD400" d="M298.001,194.939L256,251.039l-2.999,3.9c-5.101,6.599-14.401,8.101-21,2.999  c-6.601-5.1-8.101-14.399-3.001-20.999l27.001-36h-30c-5.7,0-10.8-3.3-13.5-8.401c-2.401-5.099-1.8-11.1,1.5-15.599L256,120.838  l2.999-3.898c5.101-6.601,14.401-8.101,21-3.001c6.601,5.099,8.101,14.399,3.001,21l-27.001,36h30c5.7,0,10.8,3.3,13.5,8.399  C301.901,184.44,301.3,190.438,298.001,194.939z" data-original="#FFD400" class=""/><path style="fill:#54A3FF" d="M497,390.939c-33.6,0-52.301,8.699-67.599,16.5c-8.101,4.2-15.601,7.8-25.201,10.201  c-8.101,2.1-17.401,3.3-28.2,3.3c-26.4,0-39-6.301-53.401-13.5c-15.298-7.8-32.999-16.5-66.599-16.5s-51.301,8.699-66.599,16.5  C175,414.64,162.4,420.94,136,420.94s-39-6.301-53.401-13.5c-15.298-7.8-33.999-16.5-67.599-16.5c-8.401,0-15,6.599-15,15v91  c0,8.401,6.599,15,15,15h482c8.401,0,15-6.599,15-15v-91C512,397.538,505.401,390.939,497,390.939z" data-original="#3AAAFF" class="hovered-path active-path" data-old_color="#3AAAFF"/><path style="fill:#54A3FF" d="M512,405.939v91c0,8.401-6.599,15-15,15H256v-121c33.6,0,51.301,8.699,66.599,16.5  c14.401,7.2,27.001,13.5,53.401,13.5c10.8,0,20.099-1.199,28.2-3.3c9.6-2.401,17.1-6,25.201-10.201  c15.298-7.8,33.999-16.5,67.599-16.5C505.401,390.939,512,397.538,512,405.939z" data-original="#008ADF" class="" data-old_color="#008ADF"/><g>
	<path style="fill:#FFD400" d="M283.001,134.939l-27.001,36v-50.101l2.999-3.898c5.101-6.601,14.401-8.101,21-3.001   C286.601,119.038,288.1,128.338,283.001,134.939z" data-original="#FDBF00" class="" data-old_color="#FDBF00"/>
	<path style="fill:#FFD400" d="M298.001,194.939L256,251.039V170.94h30c5.7,0,10.8,3.3,13.5,8.399   C301.901,184.44,301.3,190.438,298.001,194.939z" data-original="#FDBF00" class="" data-old_color="#FDBF00"/>
</g></g> </svg>
