<?xml version="1.0"?>
<svg xmlns="http://www.w3.org/2000/svg" xmlns:xlink="http://www.w3.org/1999/xlink" version="1.1" id="Capa_1" x="0px" y="0px" viewBox="0 0 488 488" style="enable-background:new 0 0 488 488;" xml:space="preserve" width="512px" height="512px" class=""><g><g>
	<path style="fill:#9FAAB7" d="M144,279.2v13.6l16-0.8l-8-272c0-4-4-8-8-8H80c-4,0-8,3.2-8,8l-8,272l16,0.8v-13.6l32-32L144,279.2z    M123.2,236l18.4-18.4l0.8,38.4L123.2,236z M85.6,89.6L112,70.4l26.4,19.2v12.8L112,125.6l-26.4-23.2V89.6z M86.4,68.8l0.8-17.6   L98.4,60L86.4,68.8z M137.6,68.8l-12-8.8l11.2-8.8L137.6,68.8z M139.2,123.2l0.8,27.2L124,136L139.2,123.2z M100,136.8l-16,14.4   l0.8-27.2L100,136.8z M83.2,172.8l28.8-25.6l28.8,25.6l0.8,23.2L112,224.8L83.2,196V172.8z M136,28v4l-24,18.4L88,32v-4H136z    M80.8,256l0.8-38.4L100,236L80.8,256z" data-original="#867668" class="" data-old_color="#867668"/>
	<path style="fill:#9FAAB7" d="M40,92h40V76H40c-13.6,0-24,10.4-24,24v8H0v16h16v16h16v-16h16v-16H32v-8C32,95.2,35.2,92,40,92z" data-original="#867668" class="" data-old_color="#867668"/>
	<path style="fill:#9FAAB7" d="M224,108h-16v-8c0-13.6-10.4-24-24-24h-40v16h40c4.8,0,8,3.2,8,8v8h-16v16h16v16h16v-16h16V108z" data-original="#867668" class="" data-old_color="#867668"/>
</g><g>
	<polyline style="fill:#A66D05;" points="56,316 56,284 88,284 88,316  " data-original="#A66D05" class=""/>
	<polyline style="fill:#A66D05;" points="136,316 136,284 168,284 168,316  " data-original="#A66D05" class=""/>
</g><polygon style="fill:#13CE66" points="152,316 280,188 344,188 392,236 392,316 " data-original="#4E6F3A" class="" data-old_color="#4E6F3A"/><g>
	<polyline style="fill:#9FAAB7" points="464,228 464,196 432,196 432,228  " data-original="#867668" class="" data-old_color="#867668"/>
	<polygon style="fill:#9FAAB7" points="488,228 488,484 8,484 8,308 320,308 400,228  " data-original="#867668" class="" data-old_color="#867668"/>
</g><rect x="8" y="332" style="fill:#54A3FF" width="480" height="152" data-original="#79A5B5" class="" data-old_color="#79A5B5"/><g>
	<path style="fill:#0076FF" d="M461.6,443.2l-6.4,6.4c-1.6,1.6-3.2,2.4-5.6,2.4h-2.4c-2.4,0-4-0.8-5.6-2.4l-6.4-6.4   c-5.6-4.8-11.2-7.2-17.6-7.2h-2.4c-6.4,0-12.8,2.4-16.8,7.2l-6.4,6.4c-1.6,1.6-3.2,2.4-5.6,2.4H384c-2.4,0-4-0.8-5.6-2.4l-6.4-6.4   c-6.4-4.8-12-7.2-18.4-7.2h-2.4c-6.4,0-12.8,2.4-16.8,7.2l-6.4,6.4c-1.6,1.6-3.2,2.4-5.6,2.4H320c-2.4,0-4-0.8-5.6-2.4l-6.4-6.4   c-6.4-4.8-12-7.2-18.4-7.2h-2.4c-6.4,0-12.8,2.4-16.8,7.2l-6.4,6.4c-1.6,1.6-3.2,2.4-5.6,2.4H256c-2.4,0-4-0.8-5.6-2.4l-6.4-6.4   c-6.4-4.8-12-7.2-18.4-7.2h-2.4c-6.4,0-12.8,2.4-16.8,7.2l-6.4,6.4c-1.6,1.6-3.2,2.4-5.6,2.4H192c-2.4,0-4-0.8-5.6-2.4l-6.4-6.4   c-6.4-4.8-12-7.2-18.4-7.2h-2.4c-6.4,0-12.8,2.4-16.8,7.2l-6.4,6.4c-1.6,1.6-3.2,2.4-5.6,2.4H128c-2.4,0-4-0.8-5.6-2.4l-6.4-6.4   c-6.4-4.8-12-7.2-18.4-7.2h-2.4c-6.4,0-12.8,2.4-16.8,7.2l-6.4,6.4c-2.4,1.6-4.8,2.4-6.4,2.4h-3.2c-2.4,0-4-0.8-5.6-2.4l-6.4-6.4   c-4.8-4.8-10.4-7.2-16.8-7.2h-3.2c-6.4,0-12.8,2.4-16.8,7.2L8,448.8v22.4l16.8-16.8c1.6-1.6,4-2.4,5.6-2.4h2.4c2.4,0,4,0.8,5.6,2.4   l6.4,6.4c5.6,4.8,11.2,7.2,17.6,7.2h2.4c6.4,0,12.8-2.4,16.8-7.2l6.4-6.4c1.6-1.6,3.2-2.4,5.6-2.4H96c2.4,0,4,0.8,5.6,2.4l6.4,6.4   c4.8,4.8,10.4,7.2,16.8,7.2h2.4c6.4,0,12.8-2.4,16.8-7.2l6.4-6.4c1.6-1.6,3.2-2.4,5.6-2.4h2.4c2.4,0,4,0.8,5.6,2.4l6.4,6.4   c4.8,4.8,10.4,7.2,16.8,7.2h2.4c6.4,0,12.8-2.4,16.8-7.2l6.4-6.4c1.6-1.6,3.2-2.4,5.6-2.4h2.4c2.4,0,4,0.8,5.6,2.4l6.4,6.4   c4.8,4.8,10.4,7.2,16.8,7.2h2.4c6.4,0,12.8-2.4,16.8-7.2l6.4-6.4c1.6-1.6,3.2-2.4,5.6-2.4h2.4c2.4,0,4,0.8,5.6,2.4l6.4,6.4   c4.8,4.8,10.4,7.2,16.8,7.2h2.4c6.4,0,12.8-2.4,16.8-7.2l6.4-6.4c1.6-1.6,3.2-2.4,5.6-2.4h2.4c2.4,0,4,0.8,5.6,2.4l6.4,6.4   c4.8,4.8,10.4,7.2,16.8,7.2h2.4c6.4,0,12.8-2.4,16.8-7.2l6.4-6.4c1.6-1.6,3.2-2.4,5.6-2.4h2.4c2.4,0,4,0.8,5.6,2.4l6.4,6.4   c4.8,4.8,10.4,7.2,16.8,7.2h2.4c6.4,0,12.8-2.4,16.8-7.2l6.4-6.4c1.6-1.6,3.2-2.4,5.6-2.4h20v-16h-9.6   C472,436,466.4,438.4,461.6,443.2z" data-original="#345C6B" class="" data-old_color="#345C6B"/>
	<path style="fill:#0076FF" d="M461.6,403.2l-6.4,6.4c-1.6,1.6-3.2,2.4-5.6,2.4h-2.4c-2.4,0-4-0.8-5.6-2.4l-6.4-6.4   c-5.6-4.8-11.2-7.2-17.6-7.2h-2.4c-6.4,0-12.8,2.4-16.8,7.2l-6.4,6.4c-1.6,1.6-3.2,2.4-5.6,2.4H384c-2.4,0-4-0.8-5.6-2.4l-6.4-6.4   c-6.4-4.8-12-7.2-18.4-7.2h-2.4c-6.4,0-12.8,2.4-16.8,7.2l-6.4,6.4c-1.6,1.6-3.2,2.4-5.6,2.4H320c-2.4,0-4-0.8-5.6-2.4l-6.4-6.4   c-6.4-4.8-12-7.2-18.4-7.2h-2.4c-6.4,0-12.8,2.4-16.8,7.2l-6.4,6.4c-1.6,1.6-3.2,2.4-5.6,2.4H256c-2.4,0-4-0.8-5.6-2.4l-6.4-6.4   c-6.4-4.8-12-7.2-18.4-7.2h-2.4c-6.4,0-12.8,2.4-16.8,7.2l-6.4,6.4c-1.6,1.6-3.2,2.4-5.6,2.4H192c-2.4,0-4-0.8-5.6-2.4l-6.4-6.4   c-6.4-4.8-12-7.2-18.4-7.2h-2.4c-6.4,0-12.8,2.4-16.8,7.2l-6.4,6.4c-1.6,1.6-3.2,2.4-5.6,2.4H128c-2.4,0-4-0.8-5.6-2.4l-6.4-6.4   c-6.4-4.8-12-7.2-18.4-7.2h-2.4c-6.4,0-12.8,2.4-16.8,7.2l-6.4,6.4c-2.4,1.6-4.8,2.4-6.4,2.4h-3.2c-2.4,0-4-0.8-5.6-2.4l-6.4-6.4   c-4.8-4.8-10.4-7.2-16.8-7.2h-3.2c-6.4,0-12.8,2.4-16.8,7.2L8,408.8v22.4l16.8-16.8c1.6-1.6,4-2.4,5.6-2.4h2.4c2.4,0,4,0.8,5.6,2.4   l6.4,6.4c5.6,4.8,11.2,7.2,17.6,7.2h2.4c6.4,0,12.8-2.4,16.8-7.2l6.4-6.4c1.6-1.6,3.2-2.4,5.6-2.4H96c2.4,0,4,0.8,5.6,2.4l6.4,6.4   c4.8,4.8,10.4,7.2,16.8,7.2h2.4c6.4,0,12.8-2.4,16.8-7.2l6.4-6.4c1.6-1.6,3.2-2.4,5.6-2.4h2.4c2.4,0,4,0.8,5.6,2.4l6.4,6.4   c4.8,4.8,10.4,7.2,16.8,7.2h2.4c6.4,0,12.8-2.4,16.8-7.2l6.4-6.4c1.6-1.6,3.2-2.4,5.6-2.4h2.4c2.4,0,4,0.8,5.6,2.4l6.4,6.4   c4.8,4.8,10.4,7.2,16.8,7.2h2.4c6.4,0,12.8-2.4,16.8-7.2l6.4-6.4c1.6-1.6,3.2-2.4,5.6-2.4h2.4c2.4,0,4,0.8,5.6,2.4l6.4,6.4   c4.8,4.8,10.4,7.2,16.8,7.2h2.4c6.4,0,12.8-2.4,16.8-7.2l6.4-6.4c1.6-1.6,3.2-2.4,5.6-2.4h2.4c2.4,0,4,0.8,5.6,2.4l6.4,6.4   c4.8,4.8,10.4,7.2,16.8,7.2h2.4c6.4,0,12.8-2.4,16.8-7.2l6.4-6.4c1.6-1.6,3.2-2.4,5.6-2.4h2.4c2.4,0,4,0.8,5.6,2.4l6.4,6.4   c4.8,4.8,10.4,7.2,16.8,7.2h2.4c6.4,0,12.8-2.4,16.8-7.2l6.4-6.4c1.6-1.6,3.2-2.4,5.6-2.4h20v-16h-9.6   C472,396,466.4,398.4,461.6,403.2z" data-original="#345C6B" class="" data-old_color="#345C6B"/>
	<path style="fill:#0076FF" d="M289.6,356h-2.4c-6.4,0-12.8,2.4-16.8,7.2l-6.4,6.4c-1.6,1.6-3.2,2.4-5.6,2.4H256   c-2.4,0-4-0.8-5.6-2.4l-6.4-6.4c-6.4-4.8-12-7.2-18.4-7.2h-2.4c-6.4,0-12.8,2.4-16.8,7.2l-6.4,6.4c-1.6,1.6-3.2,2.4-5.6,2.4H192   c-2.4,0-4-0.8-5.6-2.4l-6.4-6.4c-6.4-4.8-12-7.2-18.4-7.2h-2.4c-6.4,0-12.8,2.4-16.8,7.2l-6.4,6.4c-1.6,1.6-3.2,2.4-5.6,2.4H128   c-2.4,0-4-0.8-5.6-2.4l-6.4-6.4c-6.4-4.8-12-7.2-18.4-7.2h-2.4c-6.4,0-12.8,2.4-16.8,7.2l-6.4,6.4c-2.4,1.6-4.8,2.4-6.4,2.4h-3.2   c-2.4,0-4-0.8-5.6-2.4l-6.4-6.4c-4.8-4.8-10.4-7.2-16.8-7.2h-3.2c-6.4,0-12.8,2.4-16.8,7.2L8,368.8v22.4l16.8-16.8   c1.6-1.6,4-2.4,5.6-2.4h2.4c2.4,0,4,0.8,5.6,2.4l6.4,6.4c5.6,4.8,11.2,7.2,17.6,7.2h2.4c6.4,0,12.8-2.4,16.8-7.2l6.4-6.4   c1.6-1.6,3.2-2.4,5.6-2.4H96c2.4,0,4,0.8,5.6,2.4l6.4,6.4c4.8,4.8,10.4,7.2,16.8,7.2h2.4c6.4,0,12.8-2.4,16.8-7.2l6.4-6.4   c1.6-1.6,3.2-2.4,5.6-2.4h2.4c2.4,0,4,0.8,5.6,2.4l6.4,6.4c4.8,4.8,10.4,7.2,16.8,7.2h2.4c6.4,0,12.8-2.4,16.8-7.2l6.4-6.4   c1.6-1.6,3.2-2.4,5.6-2.4h2.4c2.4,0,4,0.8,5.6,2.4l6.4,6.4c4.8,4.8,10.4,7.2,16.8,7.2h2.4c6.4,0,12.8-2.4,16.8-7.2l6.4-6.4   c1.6-1.6,3.2-2.4,5.6-2.4h2.4c2.4,0,4,0.8,5.6,2.4l11.2,11.2l11.2-11.2L300,363.2C301.6,358.4,296,356,289.6,356z" data-original="#345C6B" class="" data-old_color="#345C6B"/>
</g><rect x="248" y="76" style="fill:#9FAAB7" width="128" height="80" data-original="#ADA08F" class="" data-old_color="#ADA08F"/><g>
	<rect x="248" y="100" style="fill:#9FAAB7" width="128" height="16" data-original="#867668" class="" data-old_color="#867668"/>
	<rect x="304" y="108" style="fill:#9FAAB7" width="16" height="48" data-original="#867668" class="" data-old_color="#867668"/>
	<rect x="272" y="108" style="fill:#9FAAB7" width="16" height="48" data-original="#867668" class="" data-old_color="#867668"/>
	<rect x="336" y="108" style="fill:#9FAAB7" width="16" height="48" data-original="#867668" class="" data-old_color="#867668"/>
	<polygon style="fill:#9FAAB7" points="256,20 272,20 272,36 256,36 256,52 272,52 272,76 288,76 288,52 304,52 304,36 288,36    288,20 304,20 304,4 256,4  " data-original="#867668" class="" data-old_color="#867668"/>
	<polygon style="fill:#9FAAB7" points="368,20 368,4 320,4 320,20 336,20 336,36 320,36 320,52 336,52 336,76 352,76 352,52    368,52 368,36 352,36 352,20  " data-original="#867668" class="" data-old_color="#867668"/>
	<polygon style="fill:#9FAAB7" points="472,92 472,76 424,76 424,92 440,92 440,108 424,108 424,124 440,124 440,148 456,148    456,124 472,124 472,108 456,108 456,92  " data-original="#867668" class="" data-old_color="#867668"/>
</g><rect x="408" y="148" style="fill:#9FAAB7" width="80" height="48" data-original="#ADA08F" class="" data-old_color="#ADA08F"/><g>
	<rect x="288" y="156" style="fill:#9FAAB7" width="16" height="32" data-original="#867668" class="" data-old_color="#867668"/>
	<rect x="320" y="156" style="fill:#9FAAB7" width="16" height="32" data-original="#867668" class="" data-old_color="#867668"/>
</g><polyline style="fill:#9FAAB7" points="384,340 384,308 416,308 416,340 " data-original="#A69677" class="active-path" data-old_color="#A69677"/><path style="fill:#9FAAB7" d="M408,308h-16v-8c0-17.6,14.4-32,32-32c8.8,0,16-7.2,16-16v-24h16v24c0,17.6-14.4,32-32,32  c-8.8,0-16,7.2-16,16V308z" data-original="#ADA08F" class="" data-old_color="#ADA08F"/><polygon style="fill:#13CE66" points="296,220 320,244 360,204 344,188 280,188 240,228 264,252 " data-original="#89A74D" class="" data-old_color="#89A74D"/><rect x="344" y="340" style="fill:#A66D05;" width="112" height="32" data-original="#A66D05" class=""/><g>
	<polygon style="fill:#BF9106" points="371.2,340 348.8,340 380.8,372 403.2,372  " data-original="#BF9106" class=""/>
	<polygon style="fill:#BF9106" points="428.8,372 451.2,372 419.2,340 396.8,340  " data-original="#BF9106" class=""/>
</g></g> </svg>
